<svg width="18" height="16" viewBox="0 0 18 16" fill="none" xmlns="http://www.w3.org/2000/svg">
<path fill-rule="evenodd" clip-rule="evenodd" d="M2.66667 7.33333C4.13943 7.33333 5.33333 6.13943 5.33333 4.66667C5.33333 3.19391 4.13943 2 2.66667 2C1.19391 2 0 3.19391 0 4.66667C0 6.13943 1.19391 7.33333 2.66667 7.33333ZM2.66667 6C3.40305 6 4 5.40305 4 4.66667C4 3.93029 3.40305 3.33333 2.66667 3.33333C1.93029 3.33333 1.33333 3.93029 1.33333 4.66667C1.33333 5.40305 1.93029 6 2.66667 6Z" fill="#002D63"/>
<path fill-rule="evenodd" clip-rule="evenodd" d="M2.66667 0C2.29848 0 2 0.298477 2 0.666667V3.51171C2.19612 3.39826 2.42381 3.33333 2.66667 3.33333C2.90952 3.33333 3.13722 3.39826 3.33333 3.51171V0.666667C3.33333 0.298477 3.03486 0 2.66667 0ZM3.33333 5.82162C3.13722 5.93507 2.90952 6 2.66667 6C2.42381 6 2.19612 5.93507 2 5.82162V15.3333C2 15.7015 2.29848 16 2.66667 16C3.03486 16 3.33333 15.7015 3.33333 15.3333V5.82162Z" fill="#002D63"/>
<path fill-rule="evenodd" clip-rule="evenodd" d="M8.66665 8.66667C7.19389 8.66667 5.99998 9.86057 5.99998 11.3333C5.99998 12.8061 7.19389 14 8.66665 14C10.1394 14 11.3333 12.8061 11.3333 11.3333C11.3333 9.86057 10.1394 8.66667 8.66665 8.66667ZM8.66697 10C7.93059 10 7.33364 10.597 7.33364 11.3333C7.33364 12.0697 7.93059 12.6667 8.66697 12.6667C9.40335 12.6667 10.0003 12.0697 10.0003 11.3333C10.0003 10.597 9.40335 10 8.66697 10Z" fill="#002D63"/>
<path fill-rule="evenodd" clip-rule="evenodd" d="M8.66665 16C9.03484 16 9.33331 15.7015 9.33331 15.3333L9.33331 12.4885C9.13727 12.6018 8.9097 12.6667 8.66697 12.6667C8.42398 12.6667 8.19617 12.6017 7.99998 12.4881L7.99998 15.3333C7.99998 15.7015 8.29846 16 8.66665 16ZM7.99998 10.1786C8.19617 10.065 8.42398 10 8.66697 10C8.9097 10 9.13727 10.0649 9.33331 10.1782L9.33331 0.666667C9.33331 0.298477 9.03483 2.60937e-08 8.66664 5.82818e-08C8.29846 9.047e-08 7.99998 0.298477 7.99998 0.666667L7.99998 10.1786Z" fill="#002D63"/>
<path fill-rule="evenodd" clip-rule="evenodd" d="M14.6667 7.33333C16.1394 7.33333 17.3333 6.13943 17.3333 4.66667C17.3333 3.19391 16.1394 2 14.6667 2C13.1939 2 12 3.19391 12 4.66667C12 6.13943 13.1939 7.33333 14.6667 7.33333ZM14.6667 6C15.403 6 16 5.40305 16 4.66667C16 3.93029 15.403 3.33333 14.6667 3.33333C13.9303 3.33333 13.3333 3.93029 13.3333 4.66667C13.3333 5.40305 13.9303 6 14.6667 6Z" fill="#002D63"/>
<path fill-rule="evenodd" clip-rule="evenodd" d="M14.6667 0C14.2985 0 14 0.298477 14 0.666667V3.51171C14.1961 3.39826 14.4238 3.33333 14.6667 3.33333C14.9095 3.33333 15.1372 3.39826 15.3333 3.51171V0.666667C15.3333 0.298477 15.0349 0 14.6667 0ZM15.3333 5.82162C15.1372 5.93507 14.9095 6 14.6667 6C14.4238 6 14.1961 5.93507 14 5.82162V15.3333C14 15.7015 14.2985 16 14.6667 16C15.0349 16 15.3333 15.7015 15.3333 15.3333V5.82162Z" fill="#002D63"/>
</svg>
